# xmcd
#
# Track frame offsets:
#	150
#	23240
#	46102
#	71116
#	84524
#	99903
#
# Disc length: 1511 seconds
#
# Revision: 1
# Processed by: cddbd v1.5.1PL2 Copyright (c) Steve Scherf et al.
# Submitted via: audiograbber 1.83.01
#
DISCID=4105e506
DTITLE=Mister T - THE BLUES IS A FEELING.
DYEAR=1900
DGENRE=
TTITLE0=MUDDY WATER BLUES
TTITLE1=SEVEN DAYS
TTITLE2=COLD BLOODED WOMAN
TTITLE3=YOU CAN LOVE YOURSELF
TTITLE4=CASHING A DREAM
TTITLE5=ETHNO BLUES
EXTD=
EXTT0=
EXTT1=
EXTT2=
EXTT3=
EXTT4=
EXTT5=
PLAYORDER=
